<?xml version="1.0" encoding="utf-8"?>
<!-- Generator: Adobe Illustrator 19.0.0, SVG Export Plug-In . SVG Version: 6.00 Build 0)  -->
<svg version="1.1" id="Layer_1" xmlns="http://www.w3.org/2000/svg" xmlns:xlink="http://www.w3.org/1999/xlink" x="0px" y="0px"
	 viewBox="0 0 1000 1000" style="enable-background:new 0 0 1000 1000;" xml:space="preserve">
<style type="text/css">
	.st0{fill:#0F5D2A;}
	.st1{fill:#666666;}
</style>
<path id="XMLID_15_" class="st0" d="M401.9,45.5c0.6-2.3-1.9-1.8-2.5-1.5c-5.1,2.3-7.7-1.5-10.1-4.8c-0.7-1-1.1-2.8-0.7-3.8
	c1.2-2.8,2.1-4.3,3.7-6.8c0.5-0.8,2.3-2.3,3-3c0.6-0.5,1.1-1.2,1.6-1.8c-0.6-0.4-1.2-1-1.9-1.1c-1.8-0.4-3.6-0.6-5.4-0.8H387
	c-2.8,1.4-4.2,2.7-6.4,3.9c-4.6,2.4-8.5,5-12.3,8.4c-5.5,4.9-10.6,10.4-17.7,13.2c-0.4,0.2-0.8,0.4-1.2,0.6
	c-8.5,3.5-12.4-0.2-14.3-8.7c-0.3-1.3-0.3-2.7-0.4-4.3c-9,3.3-15.6,8.4-19.5,16.9c-3.4,7.5-3.7,15.6-5.9,23.3c-1.1,3.7-2,7.7-4,11
	c-3.6,6-8.9,6.3-13.7,1.2c-4.9-5.2-7.5-11.4-6.6-18.7c0.1-0.5-0.1-1-0.2-2.7c-1.9,1.4-3.5,2.2-4.5,3.5c-4.6,6-6.7,12.8-7.6,20.4
	c-0.4,3.5-1.8,7.3-2,11c-0.6,9.6-0.9,19.3-1.5,28.9c-0.2,3.1-0.8,6.1-1.4,9.2c-0.7,4.2-3.1,6.2-8,6.9c-2.1,0.3-6.1-2.3-7.2-5
	c-0.9-2.4-1.7-4.8-2.3-7.3c-1.3-5.6-2-11.4-3.8-16.9c-1.6-4.9-3.7-9.9-10-11c-0.1,0-0.1,0-0.2,0c-0.7-0.3-1.4,0.1-1.4,0.9
	c0,2,0,3.8,0,5.6c-0.2,3.2-0.1,6.6-0.8,9.7c-1.1,4.6-3,9-6.6,12.3c-4,3.6-12,1.3-13.7-3.9c-3.2-9.8-6.4-19.5-9.6-29.3
	c-1.7-5.3-4.6-9.6-8.9-13.3c-3.8-3.3-6.9-7.5-10.6-11c-7-6.3-11.9-14.1-16.4-22.3c-0.6-1.2-2.4-1.7-4-2.9c-2.3,1.7-3.7,4.6-4.4,7.7
	c-1.7,7.4-3.4,14.7-4.6,22.2c-1.4,8-2.1,16.1-3.4,24.2c-0.7,4.3-1.1,8.9-3,12.8c-0.9,1.9-2.8,4.9-6.3,5c-3.9,0.2-6.5-1.7-8.5-4.6
	c-1.5-2.2-2.6-4.7-3.9-7c-0.5-1-1.2-1.9-2.2-3.5c-2.1,5.4-3.1,10-0.8,14.6c2.1,4.3,4.6,8.3,7,12.4c2.6,4.5,6.6,8,10,11.9
	c3.9,4.5,7.7,9.3,10.4,14.6c1.3,2.4,1,6.8-0.4,9.2c-2.3,3.9-6.9,5.1-11.2,3.8c-4.3-1.4-8.5-3.5-12.6-5.5c-4.7-2.4-9.4-5.1-13.9-7.8
	c-1.2-0.7-1.9-2-2.8-3.1c-0.4,0.2-0.4,0.2-0.8,0.4c0.2,1.7,0.4,3.4,0.8,5c1.3,6.4,4.8,11.9,8.3,17c1.5,2.2,0.9,4.5,2.1,7
	c0.7,1.5,0.9,2,1.2,4c0.5,3.3-0.3,3.9,0.8,4.7c3.4,2.6,7.2,4.9,10.9,7.2c4.6,2.8,9.1,5.8,13.9,8.3c5,2.5,9.7,5.7,15.1,7.7
	c4.1,1.5,7.8,4.2,11.5,6.7c5.4,3.7,10.8,7.6,16,11.6c2.6,2,5.1,4.2,7.2,6.6c0.7,0.7,0.4,2.7,0,3.9c-0.6,1.6-1.9,1.1-3.1,0.3
	c-0.7-0.5-1.7-0.6-2.1-1.1c-5.7-7.5-14.3-10.5-22.2-14.4c-5.8-2.9-11.7-5.6-17.6-8.1c-2.6-1.1-5.7-1.4-8.3-2.5
	c-2.6-1.1-4.9-2.7-7.3-4.2L108.3,185c-6-4.6-12.3-8.6-18.3-13.2c-4.6-3.5-9.3-7-12.9-11.5c-2.4-3-2.9-7.6-4.3-11.5
	c-0.2-0.5-0.1-1-0.2-1.9c-3.4,0.7-4.4,3.5-5.6,5.8c-2,3.8-3.6,7.5-4.4,11.5c-0.2,2.7-0.2,4.1-0.2,6.3c0.4,2.5,0.4,2.5,0.9,3.5
	c0.8,1.7,1.4,2.9,2.4,5c0.2,0.5,0.4,1.1,0.5,1.6c0.4,1.4,1.3,4.3,2,5.4c1.1,1.7,2,2.6,4.5,5.4c0.7,0.7,5,5.8,5.6,6.7
	c2.8,4,5.4,8.1,8.3,12.1c2,2.8,1.5,11.4-3.8,12.7c-5.2,1.3-10.3,1.7-15.3-0.5c-0.4-0.2-1,0-2.5,0c2.7,4,5,7.4,7.5,10.7
	c1.7,2.3,4.3,4.1,5.7,6.5c2.7,4.9,7.7,7.2,11.3,11c4.5,4.6,10.7,5.3,16,8c2.8,1.4,6.5,1.4,9.7,1.5c3.6,0.1,5.3,1.3,5.9,5.1
	c0.1,0.3,0.2,0.6,0.3,0.9c1.3,4.5,0,7.2-4.4,8.6c-3.7,1.2-7.4,2.2-11.1,3.4c-0.5,0.2-0.9,0.9-1.4,0.9c-0.9,0.2-1.8,0.4-2.7,0.7
	c-4.2,2.2-8.7-0.1-13.6-0.5c1.9,4.8,4.8,8.1,8.3,11.1c0.8,0.7,2,1.1,2.5,1.9c3,4.6,7.5,7.3,11.7,10.5c2.3,1.8,2.9,3,5.9,4.7
	c2.7,1.1,5.6,2,7.8,3c2.9,1.4,6.2,2,9,3.5c9.6,4.9,19.8,2.1,29.8,2.9c0.3,0,0.6,0.1,0.9,0.1c3.1-0.1,6.3-0.4,9.4-0.1
	c0.1,0,0.1-0.1,0.2-0.1c4.3,0.2,3.9,0.2,8.8-0.5c0,0,2.5-0.5,4.6-1.4c1.1-0.5,2.5-1,3.5-1.3c7-2,14.1-3.8,20.9-6.5
	c2.9-1.1,6-1.1,8.9-3.1c5.8-3.9,12.5-5.7,17.2-11.2c0,0,1.5-0.5,2.7-1.6c0.9-0.9,1.7-1.7,2.8-2.3c6.8-4.5,13.5-9.1,20.2-13.7
	c1.4-0.9,2.6-2.6,4-2.8c3.4-0.5,5.2-3.1,7.9-4.6c4.6-2.5,9.2-4.9,13.9-7.1c2-0.9,4.2-1.3,6.2-2c6.7-2.4,13.4-4.9,20.2-7.2
	c2.1-0.7,4.5-0.7,6.5-1.5c8.3-3.3,16.9-5.1,25.7-6.2c1.4-0.2,3.7-0.6,5.1-0.9c3.7-0.8,7.4-1.8,11.1-2.5c1.7-0.3,3.4-0.3,5.1-0.6
	c2.5-0.4,5-0.9,7.6-1.2c3.4-0.4,6.8-0.4,10.2-0.9c4.6-0.7,5.6-1,5.2-6.3c-0.1-1.7,0-3.5,0-5.2c-0.1-3,0.4-5.7,2.5-8.1
	c2.9-3.2,5.2-7.1,8.3-10.1c1.6-1.6,2.9-3.8,3.9-4.7c1.7-1.4,3.3-2.3,4.5-4.2c0.4-0.7,1.4-1.6,2-2.1c2-1.6,3.7-2.8,5.5-4.4
	c1.5-1.4,2.8-2.9,4.5-4.1c2.4-1.7,5.1-3.2,7.6-4.8c1-0.7,2-1.5,3-2.2c1.4-0.8,2.8-1.5,4.2-2.3c-0.1-0.1,0.1,0.1,0,0
	c1.8-0.6,3.4-1.5,5.2-2.1c-3-1.2-5.1-2.8-8.8-1.1c-1.6,0.7-3,1.1-4.4,0.8c-4.4-0.7-6.3,0.5-9.4,1.1c-2.1,0.4-4.2,0.8-6.4,1.2
	c-0.6,0.1-1.2,0.1-1.7,0.2c-0.7,0-1.4,0.2-2.1,0.5l-5.6,2.5c-2.4,0.5-3.7,1.3-7,2.6c-0.9,0.4-1.8,0.5-2.3,0.6
	c-1.5,0.2-1.9,0.2-3.3,0.7c-3.2,1.2-6.3,3.3-9.6,3.7c-6.4,0.9-13,1.5-19.3-1.1c-5.9-2.4-6-9.1-3.3-13.7c1.2-2.1,3.2-3.8,5.1-5.3
	c4.1-3.2,8.5-6.1,12.7-9.2c3.5-2.6,7-5.3,10.3-8.1c2-1.7,3.5-4.1,5.8-5.4c7.4-4.3,10.1-11.9,13.5-18.9c2.8-5.7,1.8-12,1.4-18.1
	c-0.3-5.2-1.2-5.6-5.6-4.7c-1.1,1.8-1.4,2.2-2.9,3.6c-1.6,1.5-2.3,2.5-3.1,3.5c-2.8,3.1-4,3.5-6.2,4.9c-2.6,1.6-4.7,0.5-6.1-2.4
	c-2.4-4.7-0.8-9.2,0.8-13.5c3.7-9.7,7.7-19.2,11.8-28.7 M199.1,159.7c-4.5-8.5-7.4-17.9-11.1-26.9c-2.7-6.7-2.7-13.8-3.1-20.9
	c0-0.8-0.2-1.6-0.2-2.2c0.4-4.2,0.1-4.3,2.4-5.5c2.7,1.3,3.6,3.4,3.9,6.6c0.3,4,1.5,8.1,3.1,11.8c2.7,6.7,5.8,13.3,9,19.9
	c2.9,5.8,5.9,11.6,9.2,17.2c3,5.1,6.7,9.7,9.6,14.9c2.9,5.2,4.6,11.3,8,16.2c3.5,5.1,4.1,10.9,5.7,16.4c1.5,5,1.6,10.5,2.1,15.9
	c0.2,2-0.2,3.9-3.1,3.8c-2.1-0.1-2.8-1.1-2.9-3c-0.5-9.9-3.9-18.7-9.1-27c-1.7-2.7-3.2-5.4-5-8l-2.4-4.4
	C209.9,176.1,203.6,168.3,199.1,159.7z M210.2,292.3c1.3-1.9,3.4-3.3,4.9-5.1c3.6-4.1,7.3-8.2,10.6-12.7c3.2-4.3,5.8-9,8.8-13.5
	c1.8-2.6,4-4.9,5.6-7.6c5.5-9.6,10.9-19.3,16.3-29c1.8-3.3,3.6-6.8,5.2-10.2c1.3-2.7,2.5-5.5,3.9-8.8c0.6-0.8,1.7-2,2.5-3.4
	c2.8-4.8,5.4-9.8,8.2-14.6c4.3-7.6,8.6-15.3,13.1-22.8c2.5-4.2,6.1-7.8,8.2-12.2c2.7-5.4,7.8-8.7,11.1-13.3c4.6-6.5,11-10.8,16.7-16
	c2.6-2.4,5.4-4.8,8.2-7c0.4-0.3,2.1,0.1,2.2,0.4c0.2,1.3,0.6,2.9,0,3.8c-2,3-4.3,5.9-6.8,8.6c-1.4,1.6-2.8,3-4.1,4.6
	c-2,2.5-4.3,4.7-6.2,7.3c-0.8,1-2.2,2.7-3,3.7c-1.2,1.7-2,2.6-3.1,4.4c-1.7,2.7-3.6,5.3-5.5,8c-0.2,0.4-0.6,0.8-0.7,1
	c-2.6,5.9-3.4,5.2-4.5,8.3c-1.2,3.3-3.3,6.1-4.9,9.3c-3.7,7.3-8.2,14.4-10.9,22c-2.2,6.2-6.3,11.1-8.6,17.1
	c-2.4,6-5.1,12.1-8.5,17.6c-6.1,9.9-12.5,19.6-19.3,29c-5.2,7.1-11.1,13.8-17.1,20.2c-3.7,3.9-8.5,6.9-12.7,10.3
	c-1.8,1.5-3.6,3.1-5.4,4.7c-0.3,0.3-0.6,0.8-1,0.8"/>
<path id="XMLID_5_" class="st0" d="M132.5,210.5"/>
<path id="XMLID_4_" class="st0" d="M120.2,196.3"/>
<path id="XMLID_3_" class="st1" d="M948.7,55.1c0.1,7.5,0.3,14.9,0.3,22.4c-0.1,25.5-0.3,50.9-0.5,76.4c-0.1,8.9-0.1,17.7,0,26.6
	c0,2.4-0.6,4.1-2.7,5.7c-6.6,4.9-14.2,8-21.6,11.4c-12.6,5.7-25.4,11.2-38.6,15.7c-13.6,4.6-27.6,8.6-41.7,11.5
	c-5.5,1.1-11.2,2.5-16.9,3c-4,0.4-8,0.8-12,1.3c-5.7,0.7-11.7,1-17.4,1.7c-0.4,0-4.8,0.1-5.5,0.1c-9.1,0.2-14.8,1.3-23.9,1.4
	c-21.2,0.3-42.5,0.7-63.7,0.6c-15.8-0.1-31.7-1.5-47.5-2.2c-9.3-0.4-20-1.5-29.3-2.3c-6.9-0.6-11.7-1.1-18.6-1.8
	c-4.6-0.5-4.6-0.5-12.4-1.1c-2.3-0.2-4.7-0.3-5.4-0.3c-6-0.2-10.2-0.7-16-0.9c-4.3-0.2-7.7-0.7-11.5-1.1c-4-0.4-6.3-0.8-12-1.2
	c-18.6-1.2-35.1,0.1-52.9-0.7c-1,0-2-0.4-3.1-0.7c-2.2-0.8-2.2-3.8-0.1-4.6c0,0,0,0,0.1,0c15.3-5.4,30.7-10.8,46-16.3
	c14.3-5.1,28.6-10.3,42.9-15.4c28.5-10.2,57.1-20.3,85.6-30.5c26.8-9.6,53.6-19.2,80.4-28.8c31.8-11.4,63.7-22.8,95.5-34.2
	c24.8-8.9,49.6-17.7,74.4-26.5c7.8-2.8,15.5-5.5,23.3-8.4c1.1-0.4,2-1.1,3.1-1.6C947.7,54.5,948,54.7,948.7,55.1z"/>
<path id="XMLID_2_" class="st1" d="M291.7,292c1.9-0.6,3.8-1.1,5.6-1.7c24.6-9,49.1-18.1,73.7-27.2c15.5-5.7,30.9-11.3,46.4-16.9
	c4.9-1.8,9.8-3.9,14.8-5.2c3.1-0.8,6.6-0.7,9.9-0.6c6.1,0.2,12.2,0.8,18.3,1.2c4.3,0.3,8.6,0.4,13,0.6c9.5,0.5,19.1,0.8,28.6,1.4
	c12.8,0.9,25.6,2.1,38.4,3.1c10.4,0.9,20.7,1.7,31.1,2.7c11.2,1.1,22.4,2.5,33.6,3.7c9.4,1,18.8,1.6,28.2,2.8
	c20.9,2.6,41.9,2.7,62.8,3c14.9,0.2,29.8-0.4,44.6-1.2c10.1-0.5,20.2-2,30.2-3.1c10.5-1.2,21.1-2.4,31.5-4
	c16.7-2.6,33.2-5.9,49.4-10.6c17.3-5,34.1-11.4,50.3-19.1c13.9-6.6,27.1-14.3,39.7-23.1c2-1.4,4.3-2.5,7.1-4.2
	c0.1,3,0.3,5.2,0.3,7.4c0,30.2-0.1,60.5-0.1,90.7c0,1.6-0.3,3.2-0.4,4.8c-14.7,0-29.4,0-44.1,0c-1.2-0.2-2.5-0.7-3.7-0.7
	c-20.9-0.3-41.8-0.6-62.7-0.8c-2.1,0-4.2,0.6-6.4,0.6c-5.4-0.1-10.8-0.6-16.1-0.6c-44.8-0.2-89.5-0.3-134.3-0.5
	c-52.2-0.2-104.5-0.7-156.7-0.8c-76.4-0.1-152.9,0-229.3,0c-1.2,0-2.4,0.1-3.5,0.2C291.7,293.3,291.7,292.6,291.7,292z"/>
<path id="XMLID_1_" class="st0" d="M948.2,190.6c0-0.1,0-0.2,0-0.3c-0.1-0.7-0.1-1.5,0.1-2.2c-0.1,0-0.2,0.1-0.3,0.2
	c-12.9,8.4-27,14.6-41.2,20.3c-14.1,5.6-28.7,10.1-43.3,14.3c-19.2,5.6-38.9,9.1-59,10.2c-20.6,1.1-41.2,2-61.7,2.4
	c-15.3,0.3-30.6-0.3-46-0.5c-2.4,0-4.7,0.4-7.1,0.2c-18.7-1.4-37.2-2.5-56-4.5c-11.1-1.2-21.3-1.3-31.9-2.2
	c-11.4-1-22.7-2.5-34.1-3.6c-10.3-1-20.7-1.6-31-2.1c-16.7,0.7-29.8,0.2-48.7-1.9c-9.4-1.1-19-0.8-28.4-1.2
	c-4.7-0.2-9.5,0.1-14.2-0.1c-7.8-0.3-15.5-0.7-23.3-1c-2.6-0.1-5.2-0.5-7.7-0.1c-4.9,0.7-9.7,1.9-14.6,2.7c-2.5,0.4-3.3,1.8-2.3,3.8
	c3.1,6.3,2.2,7.5,9.8,7.8c10.4,0.5,20.9,0.8,31.3,1.4c5.6,0.4,10.1,1.8,16.5,2.4l11.6,1.8c4,0.4,7.9,1.4,11.9,1.6
	c12.8,0.5,25.5,0.5,38.4,1.4c15.5,1.2,18.5,1.6,27.3,2.4c17.5,1.5,34.9,2.9,52.4,4.5c11.8,1.1,23.5,2.8,35.3,3.9
	c13.2,1.2,26.4,2.7,39.7,2.9c19.6,0.4,39.3-0.1,58.9-0.5c7.4-0.1,19.5-0.8,26.9-1.6c11.2-1.2,22.3-2.5,33.5-4.2
	c14.4-2.1,28.9-4.2,43.1-7.2c19.5-4.1,38.6-9.9,56.9-18c5.7-2.5,11.3-5.1,16.9-7.9c3.1-1.6,6.2-3.3,9.2-5.1c4.9-2.9,10-5.6,14.9-8.6
	c2.5-1.5,4.7-3.4,7.1-5c3-2,6.2-3.8,9.2-5.8C948.1,191.2,948.2,190.9,948.2,190.6z"/>
<g id="XMLID_10_">
	<path id="XMLID_26_" class="st1" d="M336.8,333.9v124.9h-32.9l0-84.3l-13.1,84.3h-23.3l-13.8-82.4l0,82.4h-32.9V333.9h48.7
		c1.4,7.5,2.9,16.4,4.5,26.5l5.3,31.8l8.6-58.3H336.8z"/>
	<path id="XMLID_23_" class="st1" d="M439.8,407c0,12.5-0.3,21.4-1,26.6c-0.7,5.2-2.8,10-6.4,14.3c-3.6,4.3-8.5,7.6-14.6,9.9
		c-6.1,2.3-13.3,3.5-21.4,3.5c-7.7,0-14.7-1.1-20.9-3.3c-6.2-2.2-11.1-5.5-14.9-9.8c-3.8-4.4-6-9.1-6.7-14.3
		c-0.7-5.1-1.1-14.1-1.1-27v-21.4c0-12.5,0.3-21.4,1-26.6c0.7-5.2,2.8-10,6.4-14.3c3.6-4.3,8.5-7.6,14.6-9.9
		c6.1-2.3,13.3-3.5,21.4-3.5c7.7,0,14.7,1.1,20.9,3.3c6.2,2.2,11.1,5.5,14.9,9.8c3.8,4.4,6,9.1,6.7,14.3c0.7,5.1,1.1,14.1,1.1,27
		V407z M402.2,366c0-5.8-0.4-9.5-1.1-11.1c-0.7-1.6-2.3-2.4-4.6-2.4c-2,0-3.5,0.7-4.5,2c-1,1.3-1.6,5.2-1.6,11.6v58.3
		c0,7.3,0.3,11.7,1,13.4c0.7,1.7,2.3,2.5,4.8,2.5c2.6,0,4.2-1,4.9-2.9c0.7-2,1.1-6.6,1.1-14V366z"/>
	<path id="XMLID_21_" class="st1" d="M536,333.9l-27.4,79.7v45.2h-34.8v-45.2l-26.4-79.7h34.5c5.4,24.4,8.4,40.8,9.1,49.2
		c2.1-13.3,5.6-29.7,10.5-49.2H536z"/>
	<path id="XMLID_19_" class="st1" d="M576.7,433.8h28.8v25h-70.2l24.6-67l-25.1-57.9H605v25h-27.7l14.8,33.1L576.7,433.8z"/>
	<path id="XMLID_17_" class="st1" d="M618.5,333.9h62.7v25h-25.1v23.7h23.5v23.8h-23.5v27.5h27.6v25h-65.2V333.9z"/>
	<path id="XMLID_14_" class="st1" d="M696.5,458.8V333.8h37.7v124.9H696.5z"/>
	<path id="XMLID_11_" class="st1" d="M837.1,407c0,12.5-0.3,21.4-1,26.6c-0.7,5.2-2.8,10-6.4,14.3c-3.6,4.3-8.5,7.6-14.6,9.9
		c-6.1,2.3-13.3,3.5-21.4,3.5c-7.7,0-14.7-1.1-20.9-3.3c-6.2-2.2-11.1-5.5-14.9-9.8c-3.8-4.4-6-9.1-6.7-14.3
		c-0.7-5.1-1.1-14.1-1.1-27v-21.4c0-12.5,0.3-21.4,1-26.6c0.7-5.2,2.8-10,6.4-14.3c3.6-4.3,8.5-7.6,14.6-9.9
		c6.1-2.3,13.3-3.5,21.4-3.5c7.7,0,14.7,1.1,20.9,3.3c6.2,2.2,11.1,5.5,14.9,9.8c3.8,4.4,6,9.1,6.7,14.3c0.7,5.1,1.1,14.1,1.1,27
		V407z M799.5,366c0-5.8-0.4-9.5-1.1-11.1c-0.7-1.6-2.3-2.4-4.6-2.4c-2,0-3.5,0.7-4.5,2c-1,1.3-1.6,5.2-1.6,11.6v58.3
		c0,7.3,0.3,11.7,1,13.4c0.7,1.7,2.3,2.5,4.8,2.5c2.6,0,4.2-1,4.9-2.9c0.7-2,1.1-6.6,1.1-14V366z"/>
</g>
<g id="XMLID_9_">
	<path id="XMLID_50_" class="st0" d="M258,575.6c0,11.4-0.6,19.6-1.9,24.7c-1.7,7-5.4,13.3-11.1,18.9c-8.8,8.7-25.4,13-49.8,13H186
		V661h-52.7v-28.9h-8.1c-24.5,0-41.1-4.3-49.9-13c-5.7-5.6-9.4-11.9-11.1-18.9c-1.2-5-1.9-13.3-1.9-24.7v-3
		c0-11.4,0.6-19.6,1.9-24.7c1.7-7,5.4-13.3,11.1-18.9c8.7-8.5,25.4-12.7,49.9-12.7c1.8,0,4.5-0.1,8.1-0.3v-29.5H186V516
		c4.2,0.2,7.3,0.3,9.2,0.3c24.5,0,41.1,4.2,49.8,12.7c5.7,5.6,9.4,11.9,11.1,18.9c1.2,5,1.9,13.3,1.9,24.7V575.6z M133.4,605v-61.8
		H129c-3.9,0-7.2,1.8-9.9,5.4c-2.7,3.6-4.1,8.4-4.1,14.3v22.5c0,5.9,1.4,10.6,4.1,14.2c2.7,3.6,6,5.4,9.9,5.4H133.4z M205.5,585.4
		v-22.5c0-6-1.4-10.7-4.1-14.3c-2.7-3.6-6.1-5.4-10-5.4H186V605h5.4c4,0,7.3-1.8,10-5.4C204.1,596,205.5,591.3,205.5,585.4z"/>
	<path id="XMLID_48_" class="st0" d="M387.3,486.6L349,597.9V661h-48.7v-63.1l-36.9-111.3h48.3c7.5,34,11.8,57,12.8,68.7
		c2.9-18.6,7.8-41.5,14.6-68.7H387.3z"/>
	<path id="XMLID_46_" class="st0" d="M444.3,626.1h40.2V661h-98.1l34.4-93.6l-35-80.9h97.9v34.9h-38.7l20.7,46.3L444.3,626.1z"/>
	<path id="XMLID_44_" class="st0" d="M502.6,661V486.5h52.7V661H502.6z"/>
	<path id="XMLID_42_" class="st0" d="M704.3,486.6l-30.1,78.8l33,95.7h-54.3l-21.3-74.8V661h-52.5V486.6h52.5v67.8l23.4-67.8H704.3z
		"/>
	<path id="XMLID_40_" class="st0" d="M839.8,486.6V661h-52.5v-73.3h-15.7V661H719V486.6h52.5V549h15.7v-62.4H839.8z"/>
	<path id="XMLID_38_" class="st0" d="M908.8,626.1H949V661h-98.1l34.4-93.6l-35-80.9h97.9v34.9h-38.7l20.7,46.3L908.8,626.1z"/>
</g>
<g id="XMLID_39_">
	<path id="XMLID_63_" class="st0" d="M62.4,867.4V689.1h53.8v178.3H62.4z"/>
	<path id="XMLID_61_" class="st0" d="M186.6,831.8h41v35.7H127.4l35.1-95.6l-35.8-82.6h100v35.7h-39.5l21.1,47.3L186.6,831.8z"/>
	<path id="XMLID_59_" class="st0" d="M354.2,689.3v35.7h-31.9v142.5h-53.6V724.9H237v-35.7H354.2z"/>
	<path id="XMLID_56_" class="st0" d="M491.9,793.6c0,17.9-0.5,30.6-1.5,38c-1,7.4-4,14.3-9.2,20.4c-5.1,6.2-12.1,10.9-20.8,14.2
		c-8.8,3.3-18.9,5-30.6,5c-11,0-21-1.6-29.8-4.7c-8.8-3.1-15.9-7.8-21.2-14c-5.4-6.2-8.5-13-9.6-20.4c-1-7.3-1.5-20.2-1.5-38.5
		v-30.5c0-17.9,0.5-30.6,1.5-38c1-7.4,4-14.2,9.2-20.4c5.1-6.2,12.1-10.9,20.8-14.2c8.7-3.3,18.9-5,30.6-5c11,0,21,1.6,29.8,4.7
		c8.8,3.1,15.9,7.8,21.2,14c5.4,6.2,8.5,13,9.6,20.4c1,7.3,1.5,20.2,1.5,38.5V793.6z M438.3,735c0-8.3-0.5-13.6-1.6-15.9
		c-1.1-2.3-3.2-3.5-6.6-3.5c-2.8,0-5,0.9-6.4,2.8c-1.5,1.9-2.2,7.4-2.2,16.6v83.2c0,10.3,0.5,16.7,1.5,19.1c1,2.4,3.2,3.6,6.8,3.6
		c3.7,0,6-1.4,7-4.2c1-2.8,1.5-9.4,1.5-19.9V735z"/>
	<path id="XMLID_53_" class="st0" d="M568.6,867.4h-53.8V689.1h54c13.3,0,23.8,0.7,31.4,2.2c7.6,1.5,14,4.5,19.1,9
		c5.1,4.5,8.2,9.4,9.4,14.6c1.1,5.2,1.7,13.3,1.7,24.3v15.3c0,17.8-4.1,29.2-12.4,34c-8.2,4.8-20,7.3-35.2,7.3h-14.3V867.4z
		 M585.5,748.9v-14.4c0-6-1.1-10-3.2-11.8c-2.2-1.9-6.7-2.8-13.7-2.8v45.2h4c4.8,0,8.2-1,10.1-3C584.5,760,585.5,755.6,585.5,748.9z
		"/>
	<path id="XMLID_51_" class="st0" d="M648.7,867.4V689.1h53.8v178.3H648.7z"/>
	<path id="XMLID_45_" class="st0" d="M819.4,689.3l30.7,178.1h-54.8l-2.9-32h-19.2l-3.2,32h-55.5l27.4-178.1H819.4z M791,803.8
		c-2.7-20.2-5.4-45.1-8.2-74.8c-5.5,34.1-8.9,59.1-10.3,74.8H791z"/>
	<path id="XMLID_41_" class="st0" d="M908.2,831.8h41v35.7H849.1l35.1-95.6l-35.8-82.6h100v35.7H909l21.1,47.3L908.2,831.8z"/>
</g>
<g id="XMLID_65_">
	<path id="XMLID_66_" class="st1" d="M107.9,895.1l13.1,72.5H97.6l-1.2-13h-8.2l-1.4,13H63l11.7-72.5H107.9z M95.8,941.8
		c-1.2-8.2-2.3-18.4-3.5-30.5c-2.3,13.9-3.8,24-4.4,30.5H95.8z"/>
	<path id="XMLID_69_" class="st1" d="M182.4,967.7h-24.2c-2.4-16.9-4.4-33.8-6-50.8c-1.5,17-3.3,33.9-5.4,50.8h-24.2l11.6-72.6h34.9
		L182.4,967.7z"/>
	<path id="XMLID_71_" class="st1" d="M189.1,895.1h38.3v14.5h-15.3v13.7h14.3v13.8h-14.3v15.9h16.9v14.5h-39.8V895.1z"/>
	<path id="XMLID_73_" class="st1" d="M235.5,909.6v-14.5h47.9v14.5H235.5z M235.5,967.7v-14.5h47.9v14.5H235.5z M240,937.8v-14.5
		h38.9v14.5H240z"/>
	<path id="XMLID_77_" class="st1" d="M332.3,895.1l13.1,72.5H322l-1.2-13h-8.2l-1.4,13h-23.7l11.7-72.5H332.3z M320.1,941.8
		c-1.2-8.2-2.3-18.4-3.5-30.5c-2.3,13.9-3.8,24-4.4,30.5H320.1z"/>
	<path id="XMLID_80_" class="st1" d="M403.4,895.1v72.5h-20.1l-11.9-33v33h-19.2v-72.5h19.2l12.9,32.7v-32.7H403.4z"/>
	<path id="XMLID_82_" class="st1" d="M421.9,895.1h33.2l13.2,72.6h-58.2L421.9,895.1z M435,954.7h7.9c0-0.9-0.5-7.9-1.5-20.9
		c-1-13-1.7-20.5-2.1-22.4c-0.4,1.9-1.2,9.5-2.5,22.7C435.7,947.2,435,954.1,435,954.7z"/>
	<path id="XMLID_85_" class="st1" d="M498,967.7h-23v-72.6h23.1c5.7,0,10.2,0.3,13.4,0.9c3.3,0.6,6,1.8,8.2,3.7
		c2.2,1.8,3.5,3.8,4,5.9c0.5,2.1,0.7,5.4,0.7,9.9v6.2c0,7.3-1.8,11.9-5.3,13.8c-3.5,2-8.5,3-15.1,3H498V967.7z M505.2,919.4v-5.9
		c0-2.4-0.5-4.1-1.4-4.8c-0.9-0.8-2.9-1.1-5.9-1.1V926h1.7c2.1,0,3.5-0.4,4.3-1.2C504.8,924,505.2,922.2,505.2,919.4z"/>
	<path id="XMLID_88_" class="st1" d="M586.3,937.6c0,7.3-0.2,12.4-0.6,15.5c-0.4,3-1.7,5.8-3.9,8.3c-2.2,2.5-5.2,4.4-8.9,5.8
		c-3.7,1.3-8.1,2-13.1,2c-4.7,0-9-0.6-12.7-1.9c-3.8-1.3-6.8-3.2-9.1-5.7c-2.3-2.5-3.7-5.3-4.1-8.3c-0.4-3-0.7-8.2-0.7-15.7v-12.4
		c0-7.3,0.2-12.4,0.6-15.5c0.4-3,1.7-5.8,3.9-8.3c2.2-2.5,5.2-4.4,8.9-5.8c3.7-1.3,8.1-2,13.1-2c4.7,0,9,0.6,12.7,1.9
		c3.8,1.3,6.8,3.2,9.1,5.7c2.3,2.5,3.7,5.3,4.1,8.3s0.7,8.2,0.7,15.7V937.6z M563.3,913.8c0-3.4-0.2-5.5-0.7-6.5
		c-0.5-0.9-1.4-1.4-2.8-1.4c-1.2,0-2.1,0.4-2.8,1.1s-1,3-1,6.7v33.9c0,4.2,0.2,6.8,0.6,7.8c0.4,1,1.4,1.5,2.9,1.5
		c1.6,0,2.6-0.6,3-1.7c0.4-1.1,0.7-3.8,0.7-8.1V913.8z"/>
	<path id="XMLID_91_" class="st1" d="M646.6,895.1l-16.7,46.3v26.2h-21.3v-26.2l-16.1-46.3h21.1c3.3,14.2,5.2,23.7,5.6,28.6
		c1.3-7.7,3.4-17.3,6.4-28.6H646.6z"/>
	<path id="XMLID_93_" class="st1" d="M683.1,909.6h-6.8v58h-23v-72.6h52.9v72.6h-23V909.6z"/>
	<path id="XMLID_95_" class="st1" d="M770.6,937.6c0,7.3-0.2,12.4-0.6,15.5c-0.4,3-1.7,5.8-3.9,8.3c-2.2,2.5-5.2,4.4-8.9,5.8
		c-3.7,1.3-8.1,2-13.1,2c-4.7,0-9-0.6-12.7-1.9c-3.8-1.3-6.8-3.2-9.1-5.7c-2.3-2.5-3.7-5.3-4.1-8.3c-0.4-3-0.7-8.2-0.7-15.7v-12.4
		c0-7.3,0.2-12.4,0.6-15.5c0.4-3,1.7-5.8,3.9-8.3c2.2-2.5,5.2-4.4,8.9-5.8c3.7-1.3,8.1-2,13.1-2c4.7,0,9,0.6,12.7,1.9
		c3.8,1.3,6.8,3.2,9.1,5.7c2.3,2.5,3.7,5.3,4.1,8.3s0.7,8.2,0.7,15.7V937.6z M747.6,913.8c0-3.4-0.2-5.5-0.7-6.5
		c-0.5-0.9-1.4-1.4-2.8-1.4c-1.2,0-2.1,0.4-2.8,1.1s-1,3-1,6.7v33.9c0,4.2,0.2,6.8,0.6,7.8c0.4,1,1.4,1.5,2.9,1.5
		c1.6,0,2.6-0.6,3-1.7c0.4-1.1,0.7-3.8,0.7-8.1V913.8z"/>
	<path id="XMLID_98_" class="st1" d="M836.6,967.7h-24.2c-2.4-16.9-4.4-33.8-6-50.8c-1.5,17-3.3,33.9-5.4,50.8h-24.2l11.6-72.6h34.9
		L836.6,967.7z"/>
	<path id="XMLID_100_" class="st1" d="M896.1,895.1v72.5h-23v-30.5h-6.9v30.5h-23v-72.5h23v25.9h6.9v-25.9H896.1z"/>
	<path id="XMLID_102_" class="st1" d="M927.8,953.1h17.6v14.5h-42.9l15-38.9l-15.3-33.6h42.8v14.5h-16.9l9,19.2L927.8,953.1z"/>
</g>
</svg>
